<svg xmlns="http://www.w3.org/2000/svg" version="1.1" xmlns:xlink="http://www.w3.org/1999/xlink" xmlns:svgjs="http://svgjs.com/svgjs" width="100" height="100"><svg width="100" height="100" viewBox="0 0 100 100" fill="none" xmlns="http://www.w3.org/2000/svg">
<path fill-rule="evenodd" clip-rule="evenodd" d="M7.85239 10.6157C8.09662 9.10821 9.40371 8 10.9375 8H53.125C54.0401 8 54.9091 8.39928 55.5029 9.09247C56.0966 9.78566 56.3553 10.7031 56.2107 11.6026L44.2898 85.7778H44.8974L58.1133 58.0015C58.6303 56.915 59.7298 56.2222 60.9375 56.2222H86.4011L93.2056 14.2222H68.75C67.0241 14.2222 65.625 12.8293 65.625 11.1111C65.625 9.39289 67.0241 8 68.75 8H96.875C97.7907 8 98.6604 8.39988 99.2541 9.09396C99.8479 9.78804 100.106 10.7065 99.9601 11.6065L92.1476 59.8287C91.9034 61.3362 90.5963 62.4444 89.0625 62.4444H62.9151L49.6992 90.2207C49.1822 91.3073 48.0826 92 46.875 92H40.625C39.7099 92 38.8409 91.6007 38.2471 90.9075C37.6534 90.2143 37.3947 89.2969 37.5393 88.3974L49.4603 14.2222H13.5989L6.79444 56.2222H31.25C32.9759 56.2222 34.375 57.6151 34.375 59.3333C34.375 61.0516 32.9759 62.4444 31.25 62.4444H3.12502C2.20928 62.4444 1.33962 62.0446 0.745881 61.3505C0.152141 60.6564 -0.105921 59.738 0.0398945 58.8379L7.85239 10.6157Z" fill="#38BDF8"></path>
</svg><style>@media (prefers-color-scheme: light) { :root { filter: none; } }
</style></svg>